<svg width="20" height="20" viewBox="0 0 20 20" fill="none" xmlns="http://www.w3.org/2000/svg">
<path id="Combined shape 16073" fill-rule="evenodd" clip-rule="evenodd" d="M9.99996 0C4.48608 0 0 4.48493 0 9.99999C0 15.514 4.48608 20 9.99996 20C15.5138 20 20 15.514 20 9.99999C20 4.48493 15.5138 0 9.99996 0ZM15.575 6.6645L9.42112 13.5882C9.2696 13.758 9.05846 13.8457 8.84571 13.8457C8.67691 13.8457 8.50731 13.7908 8.3654 13.6774L4.51916 10.6005C4.18761 10.3355 4.13384 9.85106 4.39921 9.5188C4.66426 9.1871 5.1488 9.13385 5.48035 9.39893L8.7561 12.0193L14.4249 5.64248C14.7066 5.32418 15.1934 5.2957 15.5107 5.57796C15.8284 5.86127 15.8573 6.34731 15.575 6.6645Z" fill="#FFC059"/>
</svg>
